# xmcd
#
# Track frame offsets:
#	150
#	22480
#	35601
#	52546
#	76398
#	93045
#	124189
#	157062
#	189012
#	212269
#	229904
#	269554
#	279191
#
# Disc length: 3982 seconds
#
# Revision: 0
# Processed by: cddbd v1.5.2PL0 Copyright (c) Steve Scherf et al.
# Submitted via: EasyCDDAExtractor 16.0.6.1
#
DISCID=a40f8c0d
DTITLE=The Allman Brothers Band  - Rock Legends 
DYEAR=2007
DGENRE=Pop/Rock/Blues
TTITLE0=Ramblin' Man
TTITLE1=Midnight Rider
TTITLE2=Trouble No More
TTITLE3=Whipping Post
TTITLE4=Ain't Wastin' No More Time
TTITLE5=In Memory of Elizabeth Reed
TTITLE6=Dreams
TTITLE7=Jessica
TTITLE8=Blue Sky
TTITLE9=Melissa
TTITLE10=Stormy Monday
TTITLE11=Little Martha
TTITLE12=Statesboro Blues
EXTD=
EXTT0=
EXTT1=
EXTT2=
EXTT3=
EXTT4=
EXTT5=
EXTT6=
EXTT7=
EXTT8=
EXTT9=
EXTT10=
EXTT11=
EXTT12=
PLAYORDER=
